<svg id="Raggruppa_4670" data-name="Raggruppa 4670" xmlns="http://www.w3.org/2000/svg" width="135.175" height="154.765" viewBox="0 0 135.175 154.765">
  <g id="Raggruppa_4670-2" data-name="Raggruppa 4670" transform="translate(6.015)">
    <path id="Tracciato_1022" data-name="Tracciato 1022" d="M28.657,14.167a4.976,4.976,0,0,1,5.1,4.8,4.976,4.976,0,0,1-5.1,4.805H18.183a4.93,4.93,0,0,1-5.1-4.805,4.93,4.93,0,0,1,5.1-4.8l.071-2.639a4.973,4.973,0,0,1,5.09-4.8,4.976,4.976,0,0,1,5.1,4.8Z" transform="translate(-13.082 -6.727)" fill="#682237"/>
  </g>
  <g id="Raggruppa_4671" data-name="Raggruppa 4671" transform="translate(107.578)">
    <path id="Tracciato_1023" data-name="Tracciato 1023" d="M130.217,14.167a4.977,4.977,0,0,1,5.1,4.8,4.977,4.977,0,0,1-5.1,4.805H119.74a4.93,4.93,0,0,1-5.1-4.805,4.929,4.929,0,0,1,5.1-4.8l.072-2.639a5.1,5.1,0,0,1,10.191,0Z" transform="translate(-114.645 -6.727)" fill="#682237"/>
  </g>
  <g id="Raggruppa_4672" data-name="Raggruppa 4672" transform="translate(34.135 101.081)">
    <path id="Tracciato_1024" data-name="Tracciato 1024" d="M53.688,138.855l10.4-21.987a6.324,6.324,0,0,0-3.513-8.522,7.1,7.1,0,0,0-9.045,3.316L41.2,133.58Z" transform="translate(-41.202 -107.808)" fill="#682237"/>
  </g>
  <g id="Raggruppa_4673" data-name="Raggruppa 4673" transform="translate(22.481 132.072)">
    <path id="Tracciato_1025" data-name="Tracciato 1025" d="M47.077,148.286l1.3-2.774a4.658,4.658,0,0,0-2.589-6.294,5.177,5.177,0,0,0-6.679,2.435l-1.284,2.708-1.079-.407a5.271,5.271,0,0,0-6.75,2.366,4.708,4.708,0,0,0,2.584,6.363l1.074.474v-.07l-.786,1.693a4.664,4.664,0,0,0,2.582,6.291,5.261,5.261,0,0,0,6.747-2.37l.145-.335.648-1.351.718.332a5.229,5.229,0,0,0,6.748-2.429,4.691,4.691,0,0,0-2.582-6.3Z" transform="translate(-29.548 -138.799)" fill="#682237"/>
  </g>
  <g id="Raggruppa_4674" data-name="Raggruppa 4674" transform="translate(62.287 141.369)">
    <path id="Tracciato_1026" data-name="Tracciato 1026" d="M79.831,156.552a5.248,5.248,0,0,1-10.477,0v-3.516a5.248,5.248,0,0,1,10.477,0Z" transform="translate(-69.354 -148.096)" fill="#682237"/>
  </g>
  <g id="Raggruppa_4675" data-name="Raggruppa 4675" transform="translate(77.682 101.081)">
    <path id="Tracciato_1027" data-name="Tracciato 1027" d="M95.742,138.855,85.33,116.868a6.325,6.325,0,0,1,3.517-8.522,7.1,7.1,0,0,1,9.047,3.316l10.332,21.918Z" transform="translate(-84.749 -107.808)" fill="#682237"/>
  </g>
  <g id="Raggruppa_4676" data-name="Raggruppa 4676" transform="translate(91.477 132.072)">
    <path id="Tracciato_1028" data-name="Tracciato 1028" d="M102.35,148.286l-1.292-2.774a4.655,4.655,0,0,1,2.588-6.294,5.17,5.17,0,0,1,6.673,2.435l1.293,2.708,1.074-.407a5.268,5.268,0,0,1,6.746,2.366,4.707,4.707,0,0,1-2.584,6.363l-1.074.474v-.07l.788,1.693a4.663,4.663,0,0,1-2.581,6.291,5.259,5.259,0,0,1-6.746-2.37l-.145-.335-.646-1.354-.719.335a5.23,5.23,0,0,1-6.75-2.429,4.693,4.693,0,0,1,2.591-6.3Z" transform="translate(-98.544 -138.799)" fill="#682237"/>
  </g>
  <g id="Raggruppa_4677" data-name="Raggruppa 4677" transform="translate(31.913 22.771)">
    <path id="Tracciato_1029" data-name="Tracciato 1029" d="M50.3,31.363A4.4,4.4,0,0,1,53.986,29.5a4.3,4.3,0,0,1,4.433,4.176,3.9,3.9,0,0,1-1.3,2.954l-.888.9c-9.549,6.3-15.341-.384-15.341-.384a4.682,4.682,0,0,1-1.914-3.472A4.307,4.307,0,0,1,43.412,29.5a4.616,4.616,0,0,1,3.619,1.734s.344,1.22,3.135.384Z" transform="translate(-38.98 -29.498)" fill="#682237"/>
  </g>
  <g id="Raggruppa_4678" data-name="Raggruppa 4678" transform="translate(0 20.861)">
    <path id="Tracciato_1030" data-name="Tracciato 1030" d="M131.834,54.108a3.849,3.849,0,0,1-4.857,2.421l-.788-.366L119.6,73.28s-2.5,2.708-4.729,2.639H92.609a3.132,3.132,0,0,1-3.23-3.047,3.241,3.241,0,0,1,3.23-3.175h17.883l.719-.072c2.58.069,2.812-.947,2.812-.947l5.589-14.3-.546-.2a3.72,3.72,0,0,1-2.563-4.709,4.043,4.043,0,0,1,4.992-2.421l.825-1.907a4.045,4.045,0,0,1,5-2.418,3.72,3.72,0,0,1,2.567,4.708l-.615,1.973a3.682,3.682,0,0,1,2.567,4.705ZM56.758,75.919H34.5c-2.228.069-4.729-2.639-4.729-2.639l-6.6-17.117-.781.366a3.844,3.844,0,0,1-4.854-2.421A3.679,3.679,0,0,1,20.1,49.4l-.611-1.973a3.717,3.717,0,0,1,2.568-4.708,4.034,4.034,0,0,1,4.988,2.418l.831,1.907a4.044,4.044,0,0,1,4.992,2.421A3.716,3.716,0,0,1,30.3,54.177l-.546.2,5.589,14.3s.227,1.016,2.812.947l.722.072H56.758a3.242,3.242,0,0,1,3.234,3.175,3.133,3.133,0,0,1-3.234,3.047Zm81.031-36.963c0-6.294-5.382-11.368-12.056-11.368a12.076,12.076,0,0,0-11.42,7.717l.145-.408-8.947,21.981a3.9,3.9,0,0,1-2.156,2.5H87.348l-.021-4.528c0-6.56-5.6-10.481-12.567-10.481h-.215c-6.964,0-12.633,3.921-12.633,10.481l.018,4.528H45.994a3.881,3.881,0,0,1-2.153-2.5L34.849,34.9l.145.408a12.142,12.142,0,0,0-11.415-7.717c-6.679,0-12.063,5.074-12.063,11.368L7.067,115.075a4.345,4.345,0,0,0,4.449,4.194,4.347,4.347,0,0,0,4.453-4.194l.644-27.335-.071-.477a2.229,2.229,0,0,1,4.451,0l.14.677L20.706,110.2a4.3,4.3,0,0,0,4.449,4.131A4.3,4.3,0,0,0,29.6,110.2l.58-22.938a2.231,2.231,0,0,1,4.454,0l-.29,18.54a4.463,4.463,0,0,0,8.9,0l.143-18.54a2.231,2.231,0,0,1,4.454,0V101.07a4.425,4.425,0,0,0,8.83,0l.212-13.807a2.132,2.132,0,0,1,2.225-2.1c1.223,0,2.154,2.1,2.154,3.251l.647,10.215c0,6.566,5.669,10.695,12.633,10.695h.215c6.964,0,12.567-4.129,12.567-10.695l.642-10.215c0-1.154,1.009-3.251,2.228-3.251a2.175,2.175,0,0,1,2.225,2.1l.145,13.807a4.464,4.464,0,0,0,8.9,0V87.263a2.229,2.229,0,0,1,4.45,0l.145,18.54a4.461,4.461,0,0,0,8.9,0l-.286-18.54a2.13,2.13,0,0,1,2.228-2.1,2.174,2.174,0,0,1,2.221,2.1L119.7,110.2a4.461,4.461,0,0,0,8.9,0l-.428-22.261.145-.677a2.13,2.13,0,0,1,2.225-2.1,2.175,2.175,0,0,1,2.224,2.1l-.072.477.646,27.335a4.459,4.459,0,0,0,8.9,0Z" transform="translate(-7.067 -27.588)" fill="#682237"/>
  </g>
  <g id="Raggruppa_4679" data-name="Raggruppa 4679" transform="translate(59.958 106.489)">
    <path id="Tracciato_1031" data-name="Tracciato 1031" d="M67.025,129.794v-9.406a7.625,7.625,0,0,1,15.224,0v9.406Z" transform="translate(-67.025 -113.216)" fill="#682237"/>
  </g>
  <g id="Raggruppa_4680" data-name="Raggruppa 4680" transform="translate(60.749 126.66)">
    <path id="Tracciato_1032" data-name="Tracciato 1032" d="M67.816,144.956v-5.075a6.827,6.827,0,0,1,13.638,0v5.075Z" transform="translate(-67.816 -133.387)" fill="#682237"/>
  </g>
  <g id="Raggruppa_4681" data-name="Raggruppa 4681" transform="translate(42.559 4.381)">
    <path id="Tracciato_1033" data-name="Tracciato 1033" d="M66.738,18.976a3.241,3.241,0,1,1,3.241,3.24,3.24,3.24,0,0,1-3.241-3.24Zm23.77.4c2.228,0,4.094-2.774,4.094-3.855a4.321,4.321,0,0,0-4.094-4.2l-.86-.2H68.3c-6.441-.408-6.819,7.106-6.819,7.106H55.736c-6.463-.339-6.106,4.059-6.106,4.059v3.724H61.838V40.224h25.44V32.1s-.359-6.425-3.233-9.476c0,0-1.437-3.447,1.078-3.112Z" transform="translate(-49.626 -11.108)" fill="#682237"/>
  </g>
</svg>
