<svg xmlns="http://www.w3.org/2000/svg" width="20.729" height="25.662" viewBox="0 0 20.729 25.662">
  <path id="Tracciato_9408" data-name="Tracciato 9408" d="M130.647,86.9A6.023,6.023,0,0,1,135,88.716a6.141,6.141,0,0,1,1.816,4.351V95.6h2.159v-1.85h2.056v4.625h0a10.381,10.381,0,0,1-9.354,10.313v1.816h1.679v2.056h-5.379v-2.056h1.679v-1.816A10.381,10.381,0,0,1,120.3,98.378h0V93.752h2.056V95.6h2.159V93.067a6.023,6.023,0,0,1,1.816-4.351,5.887,5.887,0,0,1,4.317-1.816Zm6.167,10.758v.719a6.167,6.167,0,1,1-12.334,0v-.719h-2.159v.719h0a8.173,8.173,0,0,0,2.433,5.859,8.292,8.292,0,0,0,5.859,2.433,8.173,8.173,0,0,0,5.859-2.433,8.292,8.292,0,0,0,2.433-5.859h0v-.719ZM126.536,95.6h8.223V93.067a4.239,4.239,0,0,0-1.2-2.912,4.091,4.091,0,0,0-2.912-1.2,4.239,4.239,0,0,0-2.912,1.2,4.091,4.091,0,0,0-1.2,2.912Z" transform="translate(-120.3 -86.9)" fill="#ff5300" fill-rule="evenodd"/>
</svg>
