<svg id="Raggruppa_13" data-name="Raggruppa 13" xmlns="http://www.w3.org/2000/svg" width="14.114" height="19.938" viewBox="0 0 14.114 19.938">
  <path id="Tracciato_9450" data-name="Tracciato 9450" d="M1.521,12H.576A.525.525,0,0,1,0,11.529V.471A.532.532,0,0,1,.576,0h.945A.526.526,0,0,1,2.1.471V11.537A.524.524,0,0,1,1.521,12Z" transform="translate(1 19.938) rotate(-90)" fill="#333"/>
  <g id="download" transform="translate(0)">
    <g id="Raggruppa_12" data-name="Raggruppa 12">
      <path id="Tracciato_9451" data-name="Tracciato 9451" d="M46.392,8.954a.337.337,0,0,0-.311-.208H42.4V.336A.337.337,0,0,0,42.059,0H36.677a.337.337,0,0,0-.336.336V8.746h-3.7a.336.336,0,0,0-.238.574l6.711,6.733a.337.337,0,0,0,.476,0l6.73-6.733A.336.336,0,0,0,46.392,8.954Z" transform="translate(-32.304 0)" fill="#333"/>
    </g>
  </g>
</svg>
