<svg width="16" height="15" viewBox="0 0 16 15" fill="none" xmlns="http://www.w3.org/2000/svg">
<path d="M13.9346 2.71875L13.0971 2.36875V8.0125L14.6158 4.35C14.8721 3.7125 14.5783 2.98125 13.9346 2.71875ZM1.74708 5.03125L4.84708 12.5C4.93836 12.7272 5.09407 12.9228 5.29505 13.0628C5.49604 13.2027 5.73353 13.2808 5.97833 13.2875C6.14083 13.2875 6.30958 13.2562 6.47208 13.1875L11.0783 11.2812C11.5471 11.0875 11.8346 10.625 11.8471 10.1625C11.8533 10 11.8221 9.81875 11.7658 9.65625L8.64083 2.1875C8.55249 1.95876 8.39734 1.76191 8.19558 1.62257C7.99381 1.48323 7.75477 1.40785 7.50958 1.40625C7.34708 1.40625 7.18458 1.44375 7.02833 1.5L2.42833 3.40625C2.12255 3.53147 1.87902 3.77298 1.75127 4.07771C1.62352 4.38243 1.62201 4.72541 1.74708 5.03125ZM11.8408 2.65625C11.8408 2.32473 11.7091 2.00679 11.4747 1.77237C11.2403 1.53795 10.9223 1.40625 10.5908 1.40625H9.68458L11.8408 6.61875" fill="#08464C"/>
</svg>
