<svg width="36" height="36" viewBox="0 0 36 36" fill="none" xmlns="http://www.w3.org/2000/svg">
<path d="M11.0107 34.0738L18.315 29.1781L25.6161 34.0717C26.072 34.394 26.6166 34.5671 27.175 34.5671C27.7358 34.5671 28.2827 34.3925 28.7397 34.0675L28.7415 34.0662C29.1949 33.7407 29.5363 33.2827 29.7187 32.7553C29.901 32.2283 29.9156 31.6578 29.7606 31.1221C29.7604 31.1217 29.7603 31.1212 29.7602 31.1207L27.3612 22.6607L34.3046 17.1765C34.757 16.8376 35.0926 16.3661 35.2647 15.8276C35.4375 15.2867 35.4367 14.7053 35.2624 14.1648C35.0881 13.6244 34.7491 13.1521 34.2928 12.8141C33.838 12.4772 33.2895 12.2906 32.7237 12.2802L23.9163 11.9474L20.8696 3.7183C20.8694 3.71796 20.8693 3.71762 20.8692 3.71727C20.6777 3.1941 20.3301 2.74234 19.8735 2.42311C19.4165 2.10367 18.8725 1.93235 18.315 1.93235C17.7575 1.93235 17.2134 2.10367 16.7565 2.42311C16.2997 2.74245 15.9521 3.19439 15.7606 3.71777C15.7605 3.71795 15.7604 3.71813 15.7604 3.7183L12.7232 11.9775L3.91618 12.3102C3.3504 12.3206 2.80191 12.5072 2.34713 12.8441C1.89085 13.1821 1.5518 13.6544 1.37751 14.1948C1.20322 14.7353 1.20244 15.3167 1.37527 15.8576C1.54741 16.3963 1.88319 16.8679 2.3358 17.2069L9.24877 22.6413L6.86939 31.072C6.86927 31.0724 6.86915 31.0728 6.86903 31.0732C6.71513 31.6101 6.7302 32.1813 6.9122 32.7092C7.09434 33.2376 7.43484 33.6971 7.88737 34.0251C8.33989 34.3531 8.88248 34.5338 9.44133 34.5425C9.99974 34.5512 10.5473 34.3878 11.0096 34.0745C11.0099 34.0743 11.0103 34.074 11.0107 34.0738Z" stroke="black"/>
</svg>
