<svg width="26" height="27" viewBox="0 0 26 27" fill="none" xmlns="http://www.w3.org/2000/svg">
<path d="M12.9946 4.50001C11.3731 4.4977 9.78356 4.96781 8.40656 5.8569C7.02956 6.74599 5.92036 8.0184 5.20502 9.52951C4.48969 11.0406 4.19692 12.7298 4.35998 14.4051C4.52305 16.0804 5.13541 17.6746 6.12747 19.0065C7.11953 20.3384 8.4515 21.3545 9.97197 21.9395C11.4925 22.5244 13.1405 22.6547 14.7287 22.3155C16.3169 21.9763 17.7816 21.1812 18.9564 20.0205C20.1311 18.8599 20.9688 17.3804 21.3742 15.75H19.1198C18.7225 16.9169 18.024 17.9478 17.1005 18.7302C16.1771 19.5126 15.0642 20.0162 13.8837 20.1861C12.7032 20.356 11.5005 20.1856 10.4069 19.6935C9.31342 19.2013 8.37123 18.4065 7.68338 17.3958C6.99553 16.3851 6.5885 15.1975 6.50679 13.9628C6.42508 12.7281 6.67184 11.4938 7.22008 10.3949C7.76833 9.29599 8.59696 8.37476 9.61538 7.73194C10.6338 7.08911 11.8028 6.74942 12.9946 6.75001C13.847 6.7513 14.6907 6.92906 15.4762 7.27289C16.2617 7.61673 16.9734 8.11974 17.5695 8.75251L14.0833 12.375H21.6667V4.50001L19.1198 7.14376C18.3172 6.30527 17.3628 5.64 16.3116 5.18626C15.2603 4.73252 14.133 4.49929 12.9946 4.50001Z" fill="white"/>
</svg>
