<svg width="25" height="24" viewBox="0 0 25 24" fill="none" xmlns="http://www.w3.org/2000/svg">
<path d="M14.32 22H10.68C10.4519 22 10.2307 21.9221 10.053 21.7792C9.87531 21.6362 9.75181 21.4368 9.70301 21.214L9.29601 19.33C8.75306 19.0921 8.23824 18.7946 7.76101 18.443L5.92401 19.028C5.70657 19.0973 5.47196 19.0902 5.25913 19.0078C5.0463 18.9254 4.86806 18.7727 4.75401 18.575L2.93001 15.424C2.81715 15.2261 2.77479 14.9958 2.80985 14.7708C2.84491 14.5457 2.95532 14.3392 3.12301 14.185L4.54801 12.885C4.4832 12.2961 4.4832 11.7019 4.54801 11.113L3.12301 9.816C2.95508 9.66177 2.84452 9.45507 2.80946 9.22978C2.77439 9.00449 2.8169 8.77397 2.93001 8.576L4.75001 5.423C4.86406 5.22532 5.0423 5.07259 5.25513 4.99019C5.46796 4.90778 5.70257 4.90066 5.92001 4.97L7.75701 5.555C8.00101 5.375 8.25501 5.207 8.51701 5.055C8.77001 4.913 9.03001 4.784 9.29601 4.669L9.70401 2.787C9.75258 2.5642 9.87584 2.36469 10.0534 2.22155C10.2309 2.07841 10.452 2.00024 10.68 2H14.32C14.548 2.00024 14.7691 2.07841 14.9467 2.22155C15.1242 2.36469 15.2474 2.5642 15.296 2.787L15.708 4.67C16.2506 4.9079 16.7651 5.20539 17.242 5.557L19.08 4.972C19.2973 4.90292 19.5317 4.91017 19.7443 4.99256C19.9569 5.07495 20.135 5.22753 20.249 5.425L22.069 8.578C22.301 8.985 22.221 9.5 21.876 9.817L20.451 11.117C20.5158 11.7059 20.5158 12.3001 20.451 12.889L21.876 14.189C22.221 14.507 22.301 15.021 22.069 15.428L20.249 18.581C20.135 18.7787 19.9567 18.9314 19.7439 19.0138C19.5311 19.0962 19.2964 19.1033 19.079 19.034L17.242 18.449C16.7651 18.8003 16.2506 19.0975 15.708 19.335L15.296 21.214C15.2472 21.4366 15.1239 21.6359 14.9464 21.7788C14.7689 21.9218 14.5479 21.9998 14.32 22ZM8.12001 16.229L8.94001 16.829C9.12501 16.965 9.31701 17.09 9.51701 17.204C9.70501 17.313 9.89701 17.411 10.096 17.5L11.029 17.909L11.486 20H13.516L13.973 17.908L14.906 17.499C15.313 17.319 15.7 17.096 16.059 16.833L16.879 16.233L18.921 16.883L19.936 15.125L18.353 13.682L18.465 12.67C18.515 12.227 18.515 11.78 18.465 11.338L18.353 10.326L19.937 8.88L18.921 7.121L16.88 7.771L16.059 7.171C15.6998 6.90669 15.3133 6.68173 14.906 6.5L13.973 6.091L13.516 4H11.486L11.026 6.092L10.096 6.5C9.68819 6.67861 9.30149 6.90198 8.94301 7.166L8.12201 7.766L6.08201 7.116L5.06501 8.88L6.64801 10.321L6.53601 11.334C6.48601 11.777 6.48601 12.224 6.53601 12.666L6.64801 13.678L5.06501 15.121L6.08001 16.879L8.12001 16.229ZM12.496 16C11.4351 16 10.4177 15.5786 9.66758 14.8284C8.91743 14.0783 8.49601 13.0609 8.49601 12C8.49601 10.9391 8.91743 9.92172 9.66758 9.17157C10.4177 8.42143 11.4351 8 12.496 8C13.5569 8 14.5743 8.42143 15.3244 9.17157C16.0746 9.92172 16.496 10.9391 16.496 12C16.496 13.0609 16.0746 14.0783 15.3244 14.8284C14.5743 15.5786 13.5569 16 12.496 16ZM12.496 10C12.1044 10.0004 11.7215 10.1158 11.3948 10.3318C11.0681 10.5479 10.8121 10.855 10.6584 11.2153C10.5047 11.5755 10.4602 11.9729 10.5304 12.3583C10.6005 12.7436 10.7823 13.0998 11.053 13.3828C11.3238 13.6657 11.6717 13.863 12.0536 13.95C12.4354 14.037 12.8344 14.01 13.2011 13.8724C13.5677 13.7347 13.8859 13.4924 14.1161 13.1756C14.3463 12.8587 14.4784 12.4812 14.496 12.09V12.49V12C14.496 11.4696 14.2853 10.9609 13.9102 10.5858C13.5351 10.2107 13.0264 10 12.496 10Z" fill="#575757"/>
</svg>
