<svg width="30" height="30" viewBox="0 0 30 30" fill="none" xmlns="http://www.w3.org/2000/svg">
<path d="M19.5 4.125C17.75 4.125 16.25 4.75 15 6L12.25 8.75C11.75 9.25 11.75 10 12.25 10.5C12.75 11 13.5 11 14 10.5L16.75 7.75C18.25 6.25 20.75 6.25 22.25 7.75C23 8.5 23.375 9.5 23.375 10.5C23.375 11.5 23 12.5 22.25 13.25L19.5 16C19 16.5 19 17.25 19.5 17.75C19.75 18 20.125 18.125 20.375 18.125C20.625 18.125 21 18 21.25 17.75L24 15C25.25 13.75 25.875 12.25 25.875 10.5C25.875 8.75 25.25 7.25 24 6C22.75 4.75 21.25 4.125 19.5 4.125Z" fill="white"/>
<path d="M10.5 14.125C11 13.625 11 12.875 10.5 12.375C10 11.875 9.25 11.875 8.75 12.375L6 15C4.75 16.25 4.125 17.75 4.125 19.5C4.125 21.25 4.75 22.75 6 24C7.25 25.25 8.75 25.875 10.5 25.875C12.25 25.875 13.75 25.25 15 24L17.75 21.25C18.25 20.75 18.25 20 17.75 19.5C17.25 19 16.5 19 16 19.5L13.25 22.25C11.75 23.75 9.25 23.75 7.75 22.25C7 21.5 6.625 20.5 6.625 19.5C6.625 18.5 7 17.5 7.75 16.75L10.5 14.125Z" fill="white"/>
<path d="M11.375 18.625C11.625 18.875 12 19 12.25 19C12.5 19 12.875 18.875 13.125 18.625L18.5 13.25C19 12.75 19 12 18.5 11.5C18 11 17.25 11 16.75 11.5L11.375 16.875C10.875 17.25 10.875 18.125 11.375 18.625Z" fill="white"/>
</svg>
